<svg id="Layer_1" data-name="Layer 1" xmlns="http://www.w3.org/2000/svg" viewBox="0 0 128 128" fill="#626e79">
<path d="M115.72,115.27a1,1,0,0,0,1-1V9.27a1,1,0,0,0-1-1h-105a1,1,0,0,0-1,1v105a1,1,0,0,0,1,1ZM47,65.36H80.68v8H47Zm0,10H80.68v8H47Zm33.66-12H47V28.05H80.68ZM47,85.36H80.68v8H47ZM80.68,26.05H47V10.27H80.68ZM45,113.27H43v-103h2Zm2-17.91H80.68v17.91H47ZM82.68,10.27H110v103H82.68Zm32,103H112v-103h2.7Zm-103-103H41v103H11.72Z"/><path d="M20.21,62.5,34.9,47.81a1,1,0,0,0,0-1.41,1,1,0,0,0-1.42,0L18.8,61.08a1,1,0,0,0,1.41,1.42Z"/><path d="M29.51,62.5l5.24-5.25a1,1,0,0,0-1.41-1.41L28.1,61.08a1,1,0,0,0,.7,1.71A1,1,0,0,0,29.51,62.5Z"/><path d="M38.08,80.65a1,1,0,0,0-1.41,0L19.28,98A1,1,0,0,0,20,99.75a1,1,0,0,0,.7-.3L38.08,82.07A1,1,0,0,0,38.08,80.65Z"/><path d="M26.54,81.56l-5,5a1,1,0,0,0,0,1.41,1,1,0,0,0,1.41,0l5-5a1,1,0,0,0-1.42-1.42Z"/><path d="M105.05,24.62a1,1,0,1,0-1.42-1.42L84.8,42a1,1,0,0,0,.71,1.71,1,1,0,0,0,.7-.3Z"/><path d="M101.23,36.94a1,1,0,0,0-1.41,0l-5.6,5.61a1,1,0,0,0,.7,1.7,1,1,0,0,0,.71-.29l5.6-5.6A1,1,0,0,0,101.23,36.94Z"/><path d="M103.39,84.56,85.81,102.13a1,1,0,0,0,0,1.42,1,1,0,0,0,.71.29,1,1,0,0,0,.71-.29L104.8,86a1,1,0,0,0-1.41-1.41Z"/><path d="M94.48,85.92,89.8,90.6a1,1,0,0,0,.71,1.71,1,1,0,0,0,.7-.3l4.68-4.67a1,1,0,0,0,0-1.42A1,1,0,0,0,94.48,85.92Z"/><path d="M96.32,62a1,1,0,0,0-1.41,0l-5.11,5.1a1,1,0,0,0,0,1.42,1,1,0,0,0,.71.29,1,1,0,0,0,.7-.29l5.11-5.11A1,1,0,0,0,96.32,62Z"/><path d="M25.19,26.85a1,1,0,0,0,.71-.3l4.7-4.7a1,1,0,0,0,0-1.42,1,1,0,0,0-1.41,0l-4.71,4.71a1,1,0,0,0,0,1.41A1,1,0,0,0,25.19,26.85Z"/><path d="M61.27,117.73H5.38a1,1,0,1,0,0,2H61.27a1,1,0,0,0,0-2Z"/><path d="M79.23,117.73H67.77a1,1,0,0,0,0,2H79.23a1,1,0,0,0,0-2Z"/><path d="M122.62,117.73h-38a1,1,0,0,0,0,2h38a1,1,0,0,0,0-2Z"/><path d="M64.24,88.36H63.09a1,1,0,1,0,0,2h1.15a1,1,0,0,0,0-2Z"/><path d="M64.24,78.36H63.09a1,1,0,1,0,0,2h1.15a1,1,0,0,0,0-2Z"/><path d="M64.27,68H63.13a1,1,0,0,0,0,2h1.14a1,1,0,0,0,0-2Z"/></svg>