<svg id="Layer_1" data-name="Layer 1" xmlns="http://www.w3.org/2000/svg" viewBox="0 0 128 128"><title>iStar_Design_Interior_Design_LineIcons_Outlined-66</title><path d="M2.7,45.39v79.89a1,1,0,0,0,1,1H22.57a1,1,0,0,0,1-1V122h80.86v3.31a1,1,0,0,0,1,1H124.3a1,1,0,0,0,1-1V45.39a1,1,0,0,0-1-1H104.5a9,9,0,0,1,.21-7.12,1,1,0,0,0-.91-1.42H97a9,9,0,0,1,.23-7.06,1,1,0,0,0-.91-1.42h-33a5.24,5.24,0,0,0,0,10.48h1.29a5.12,5.12,0,0,0,0,6.54H41A4.55,4.55,0,0,0,42.3,41.5l1.24-10.3a2.8,2.8,0,0,0,0-5.58c.68-6.53,7.89-12.69,8-12.76a1,1,0,0,0-.7-1.76,15.79,15.79,0,0,0-6.94,2.09,22.73,22.73,0,0,0-3.38-11,1,1,0,0,0-1.13-.4,1,1,0,0,0-.7,1,20.36,20.36,0,0,1-1.45,7.58,39.57,39.57,0,0,0-3.55-6.41,1,1,0,0,0-.81-.43h0A1,1,0,0,0,32,3.9,36,36,0,0,0,27.75,12c-1.62-1.93-.45-5.53-.44-5.57a1,1,0,0,0-1.4-1.21c-.06,0-5.9,3-6,9.32l-3.54-3.18a1,1,0,0,0-1.12-.14,1,1,0,0,0-.54,1c0,.43,1,9.48,6,13.85a2.79,2.79,0,0,0-1.31,2.36A2.81,2.81,0,0,0,22,31.2l1.24,10.25a4.72,4.72,0,0,0,1.33,2.94H3.7A1,1,0,0,0,2.7,45.39Zm41.41-17a.8.8,0,0,1-.8.8H28.39a1,1,0,0,0,0,2H41.52l-1.21,10.1a2.69,2.69,0,0,1-2.68,2.51H27.86a2.7,2.7,0,0,1-2.68-2.56L24,31.21h.91a1,1,0,1,0,0-2H22.19a.81.81,0,1,1,0-1.61H43.31A.8.8,0,0,1,44.11,28.41Zm-3.78-22a17.87,17.87,0,0,1,1.16,10.39A1,1,0,0,0,42.24,18l.22,0a1,1,0,0,0,1-.79c.09-.4.15-.79.21-1.19a7.78,7.78,0,0,1,4.15-2.39c-2.43,2.6-5.91,7.11-6.34,12H36.52a20.39,20.39,0,0,0,2.37-8.33,15.2,15.2,0,0,0-.82-4.56A15,15,0,0,0,40.33,6.38Zm-7.54-.07c1.39,2.25,4.1,7.12,4.1,11,0,2.72-1.36,5.94-2.61,8.33H32.5c1-6.21-.85-9.36-3.18-11.94A31.3,31.3,0,0,1,32.79,6.31Zm-7.86,2a6.66,6.66,0,0,0,1.55,5.26c2.8,2.85,5.21,5.33,4,12h-3.1a16.73,16.73,0,0,1-5.26-8.83A8.4,8.4,0,0,1,24.93,8.32Zm-7.78,6.44,3.09,2.77a20.32,20.32,0,0,0,4.21,8.07h-.88C19.67,23.63,17.89,18.13,17.15,14.76Zm106.15,98H64.73V79.88H123.3Zm-60.57,0H4.7V79.88h58Zm43.7,11.48V121a1,1,0,0,0-1-1H22.57a1,1,0,0,0-1,1v3.31H4.7V114.8H123.3v9.48Zm16.87-46.4H64.73V46.39H123.3ZM60.05,32.61a3.25,3.25,0,0,1,3.24-3.24H94.82a11.18,11.18,0,0,0,0,6.48H63.29A3.24,3.24,0,0,1,60.05,32.61Zm8.61,11.72a3.24,3.24,0,0,1,0-6.48h33.69a11.37,11.37,0,0,0-.43,2.24H96.27a1,1,0,0,0,0,2h5.66a10.64,10.64,0,0,0,.45,2.3H68.92A.76.76,0,0,0,68.66,44.33Zm-5.93,2.06V77.88H4.7V46.39Z"/><path d="M9.11,74.9h49.1a1,1,0,0,0,1-1V51a1,1,0,0,0-1-1H9.11a1,1,0,0,0-1,1V73.9A1,1,0,0,0,9.11,74.9Zm1-22.9h47.1V72.9H10.11Z"/><path d="M39.14,56.44a1,1,0,0,0-1,1v1.9h-9v-1.9a1,1,0,0,0-2,0v2.9a1,1,0,0,0,1,1h11a1,1,0,0,0,1-1v-2.9A1,1,0,0,0,39.14,56.44Z"/><path d="M69.19,74.9H118.3a1,1,0,0,0,1-1V51a1,1,0,0,0-1-1H69.19a1,1,0,0,0-1,1V73.9A1,1,0,0,0,69.19,74.9Zm1-22.9H117.3V72.9H70.19Z"/><path d="M99.23,56.44a1,1,0,0,0-1,1v1.9h-9v-1.9a1,1,0,1,0-2,0v2.9a1,1,0,0,0,1,1h11a1,1,0,0,0,1-1v-2.9A1,1,0,0,0,99.23,56.44Z"/><path d="M9.11,108.83h49.1a1,1,0,0,0,1-1V84.93a1,1,0,0,0-1-1H9.11a1,1,0,0,0-1,1v22.9A1,1,0,0,0,9.11,108.83Zm1-22.9h47.1v20.9H10.11Z"/><path d="M39.14,90.37a1,1,0,0,0-1,1v1.9h-9v-1.9a1,1,0,0,0-2,0v2.9a1,1,0,0,0,1,1h11a1,1,0,0,0,1-1v-2.9A1,1,0,0,0,39.14,90.37Z"/><path d="M69.19,108.83H118.3a1,1,0,0,0,1-1V84.93a1,1,0,0,0-1-1H69.19a1,1,0,0,0-1,1v22.9A1,1,0,0,0,69.19,108.83Zm1-22.9H117.3v20.9H70.19Z"/><path d="M99.23,90.37a1,1,0,0,0-1,1v1.9h-9v-1.9a1,1,0,0,0-2,0v2.9a1,1,0,0,0,1,1h11a1,1,0,0,0,1-1v-2.9A1,1,0,0,0,99.23,90.37Z"/></svg>