<svg id="Layer_1" data-name="Layer 1" xmlns="http://www.w3.org/2000/svg" viewBox="0 0 128 128" fill="#626e79">
<path d="M4.49,5.48v117a1,1,0,0,0,1,1H19.9l.09,0,.1,0h6.34l.09,0,.09,0H33l.1,0,.09,0h6.34l.1,0,.09,0h82.84a1,1,0,0,0,1-1V5.48a1,1,0,0,0-1-1H5.49A1,1,0,0,0,4.49,5.48ZM92.85,33.13v4.18H89.46V33.13Zm18.62,0v4.18H94.85V33.13Zm5.39,0v4.18h-3.39V33.13Zm-3.39,10.36V39.31h3.39v4.18Zm-18.62,0V39.31h16.62v4.18Zm-5.39-4.18h3.39v4.18H89.46Zm-1,6.18h33.05v37H119V52.85a1,1,0,0,0-1-1H105.66a1,1,0,0,0-1,1v3.72s-.07-.06-.11-.07l-4.94-2.11a1,1,0,0,0-1.31.53L86.54,82.49h-2v-37Zm24.38,37V53.85H117V82.49Zm-6.18,0V53.85h4.18V82.49Zm-12.11,0L104.66,58.8V82.49Zm-5.84,0,11-25.87,3.1,1.32L92.38,82.49Zm-6.21,0h-37v-37h37Zm0,2v37h-37v-37Zm-76-39h37v37h-37ZM18.43,20.25H23.2L22.5,25a1,1,0,0,0,.71,1.11,8.81,8.81,0,1,1-4.79,0A1,1,0,0,0,19.14,25ZM45.5,43.49v-37h37v37Zm-2,0H27a10.8,10.8,0,0,0-2.35-19l.75-5.08a1,1,0,0,0-1-1.15H17.28a1,1,0,0,0-.76.35,1,1,0,0,0-.23.8L17,24.48a10.79,10.79,0,0,0-2.35,19H6.49v-37h37Zm-37,41h37v37H40.58V91.87a1,1,0,0,0-1-1H20a1,1,0,0,0-1,1V121.5H6.49Zm19,8.38v4.19H21V92.87Zm6.53,0v4.19H27.52V92.87Zm6.53,0v4.19H34.05V92.87ZM21,99.06h4.53V121.5H21Zm6.53,0h4.53V121.5H27.52Zm6.53,0h4.53V121.5H34.05ZM84.5,121.5v-37h37v37Zm37-78h-2.65V32.13a1,1,0,0,0-1-1H88.46a1,1,0,0,0-1,1V43.49h-3v-37h37Z"/><path d="M39.76,48.55H10.23a1,1,0,0,0-1,1V78.8a1,1,0,0,0,1,1H39.76a1,1,0,0,0,1-1V49.55A1,1,0,0,0,39.76,48.55ZM38.76,68H36.24V60.31h2.52ZM11.23,77.8V50.55H38.76v7.76H35.24a1,1,0,0,0-1,1V69a1,1,0,0,0,1,1h3.52V77.8Z"/><path d="M49.24,79.8H78.78a1,1,0,0,0,1-1V49.55a1,1,0,0,0-1-1H49.24a1,1,0,0,0-1,1V78.8A1,1,0,0,0,49.24,79.8Zm1-19.49h2.52V68H50.24Zm27.54-9.76V77.8H50.24V70h3.52a1,1,0,0,0,1-1V59.31a1,1,0,0,0-1-1H50.24V50.55Z"/><path d="M49.23,118.56H78.76a1,1,0,0,0,1-1V88.3a1,1,0,0,0-1-1H49.23a1,1,0,0,0-1,1v29.26A1,1,0,0,0,49.23,118.56ZM77.76,106.8H75.24V99.06h2.52ZM50.23,89.3H77.76v7.76H74.24a1,1,0,0,0-1,1v9.74a1,1,0,0,0,1,1h3.52v7.76H50.23Z"/><path d="M117.78,87.3H88.24a1,1,0,0,0-1,1v29.26a1,1,0,0,0,1,1h29.54a1,1,0,0,0,1-1V88.3A1,1,0,0,0,117.78,87.3ZM89.24,99.06h2.52v7.74H89.24Zm27.54,17.5H89.24V108.8h3.52a1,1,0,0,0,1-1V98.06a1,1,0,0,0-1-1H89.24V89.3h27.54Z"/><path d="M20.82,41.49A6.55,6.55,0,0,0,27,37.15a1,1,0,0,0-.6-1.28,1,1,0,0,0-1.28.61,4.56,4.56,0,0,1-4.28,3,1,1,0,0,0,0,2Z"/></svg>