<svg id="Layer_1" data-name="Layer 1" xmlns="http://www.w3.org/2000/svg" viewBox="0 0 128 128" fill="#626e79">
<path d="M43.71,49.42l-1.45,1.44a1,1,0,0,0,0,1.42,1,1,0,0,0,1.42,0l1.44-1.45a1,1,0,0,0-1.41-1.41Z"/>
<path d="M37.91,55.21l-1.44,1.45a1,1,0,0,0,0,1.42,1,1,0,0,0,.7.29,1,1,0,0,0,.71-.29l1.45-1.45a1,1,0,0,0-1.42-1.42Z"/>
<path d="M43.68,55.21a1,1,0,0,0-1.42,1.42l1.45,1.45a1,1,0,0,0,.71.29,1,1,0,0,0,.7-1.71Z"/>
<path d="M37.88,49.42a1,1,0,1,0-1.41,1.41l1.44,1.45a1,1,0,0,0,1.42,0,1,1,0,0,0,0-1.42Z"/>
<path d="M90.12,49.42l-1.45,1.44a1,1,0,0,0,0,1.42,1,1,0,0,0,1.42,0l1.44-1.45a1,1,0,0,0-1.41-1.41Z"/>
<path d="M84.32,55.21l-1.44,1.45a1,1,0,0,0,.7,1.71,1,1,0,0,0,.71-.29l1.45-1.45a1,1,0,1,0-1.42-1.42Z"/>
<path d="M90.09,55.21a1,1,0,1,0-1.42,1.42l1.45,1.45a1,1,0,0,0,.71.29,1,1,0,0,0,.7-1.71Z"/>
<path d="M84.29,49.42a1,1,0,0,0-1.41,1.41l1.44,1.45a1,1,0,0,0,1.42,0,1,1,0,0,0,0-1.42Z"/>
<path d="M64,70.52H92.34a1,1,0,0,0,0-2H64a1,1,0,1,0,0,2Z"/>
<path d="M99.87,70.52h7.59a1,1,0,0,0,0-2H99.87a1,1,0,0,0,0,2Z"/>
<path d="M18.35,70.52H53.69a1,1,0,0,0,0-2H18.35a1,1,0,0,0,0,2Z"/>
<path d="M7,113.07h3.58v3.07a1,1,0,0,0,1,1H27.41a1,1,0,0,0,1-1v-3.07H99.59v3.07a1,1,0,0,0,1,1h15.84a1,1,0,0,0,1-1v-3.07H121a4.47,4.47,0,0,0,4.47-4.46V78.93a4.46,4.46,0,0,0-4.15-4.43,11.57,11.57,0,0,0-4.91-9.28.53.53,0,0,0,0-.12v-48a1,1,0,1,0-2,0v6.2C82.06,6.74,46.36,6.71,13.55,23.16V17.05a1,1,0,0,0-2,0V65.1a.53.53,0,0,0,0,.12A11.57,11.57,0,0,0,6.67,74.5a4.45,4.45,0,0,0-4.14,4.43v29.68A4.46,4.46,0,0,0,7,113.07Zm19.42,2.07H12.57v-2.07H26.41Zm89,0H101.59v-2.07h13.84Zm-1-89.65v2.28c-32.39-16.24-68.1-16.22-100.9.09V25.4C46.33,8.63,82.11,8.66,114.45,25.49ZM13.55,30.08C46.31,13.47,82.11,13.45,114.45,30V64a13.94,13.94,0,0,0-6.15-1.42h-1.81V49.09a8.63,8.63,0,0,0-8.62-8.62H76.54a8.63,8.63,0,0,0-8.62,8.62V62.6H60.08V48.29a7.83,7.83,0,0,0-7.82-7.82H29.33a7.83,7.83,0,0,0-7.82,7.82V62.6H19.7A14,14,0,0,0,13.55,64ZM104.49,62.6H69.92V49.09a6.63,6.63,0,0,1,6.62-6.62H97.87a6.63,6.63,0,0,1,6.62,6.62Zm-46.41,0H23.51V48.29a5.83,5.83,0,0,1,5.82-5.82H52.26a5.83,5.83,0,0,1,5.82,5.82Zm-38.38,2h88.6c6.06,0,11,4.42,11,9.87H8.67C8.71,69,13.64,64.6,19.7,64.6ZM7,76.47H121a2.47,2.47,0,0,1,2.47,2.46v29.68a2.47,2.47,0,0,1-2.47,2.46H7a2.46,2.46,0,0,1-2.46-2.46v-3.32H44.17a1,1,0,0,0,0-2H4.53V78.93A2.46,2.46,0,0,1,7,76.47Z"/>
<path d="M49.82,105.29h4.63a1,1,0,0,0,0-2H49.82a1,1,0,0,0,0,2Z"/>
</svg>