<svg id="Layer_1" data-name="Layer 1" xmlns="http://www.w3.org/2000/svg" viewBox="0 0 128 128" fill="#626e79">
<path d="M14.77,3V125a1,1,0,0,0,1,1h3.12a1,1,0,0,0,1-.89l1.87-16.76,6.36,4.85a1,1,0,0,0,.6.2H60.38l3.86,3.86a1,1,0,0,0,1.41,0l3.86-3.86h31.67a1,1,0,0,0,.71-.29l4.4-4.43,1.83,16.43a1,1,0,0,0,1,.89h3.12a1,1,0,0,0,1-1V3a1,1,0,0,0-1-1H15.77A1,1,0,0,0,14.77,3Zm92.28,102.41H65V89.78H76.39v3a1,1,0,0,0,1,1H98.68a1,1,0,0,0,1-1v-3h11.55v15.67Zm-90.28,0V89.78H28.32v3a1,1,0,0,0,1,1H50.61a1,1,0,0,0,1-1v-3H63v15.67ZM49.61,89.78v2H30.32v-2Zm48.07,0v2H78.39v-2Zm13.55-2H16.77V9.45h94.46ZM18,124H16.77V107.45h3.06Zm82.76-12.6H69.1a1,1,0,0,0-.71.3L65,115.1l-3.45-3.44a1,1,0,0,0-.71-.3H29.05l-5.14-3.91h80.74ZM110,124l-1.83-16.51h3.06V124ZM111.23,4V7.45H16.77V4Z"/><path d="M81.25,84.31h25.64a1,1,0,0,0,1-1V14.4a1,1,0,0,0-1-1H81.25a1,1,0,0,0-1,1V83.31A1,1,0,0,0,81.25,84.31Zm1-39.72h2v8.52h-2ZM105.89,15.4V82.31H82.25V55.11h3a1,1,0,0,0,1-1V43.59a1,1,0,0,0-1-1h-3V15.4Z"/><path d="M51.14,84.31H76.78a1,1,0,0,0,1-1V14.4a1,1,0,0,0-1-1H51.14a1,1,0,0,0-1,1V83.31A1,1,0,0,0,51.14,84.31Zm1-68.91H75.78V82.31H52.14Z"/><path d="M21.11,84.31H46.75a1,1,0,0,0,1-1V14.4a1,1,0,0,0-1-1H21.11a1,1,0,0,0-1,1V83.31A1,1,0,0,0,21.11,84.31Zm1-39.72h2v8.52h-2ZM45.75,15.4V82.31H22.11V55.11h3a1,1,0,0,0,1-1V43.59a1,1,0,0,0-1-1h-3V15.4Z"/><path d="M65.65,23.63a1,1,0,0,0-1.41,0L56.5,31.37a1,1,0,0,0,0,1.41,1,1,0,0,0,1.41,0L65.65,25A1,1,0,0,0,65.65,23.63Z"/><path d="M60.17,24.29a1,1,0,0,0,0-1.41,1,1,0,0,0-1.42,0l-3.28,3.28a1,1,0,0,0,1.41,1.42Z"/><path d="M72.35,64a1,1,0,0,0-1.41,0L63.2,71.74a1,1,0,0,0,1.41,1.42l7.74-7.74A1,1,0,0,0,72.35,64Z"/><path d="M72,69.21l-3.29,3.28a1,1,0,0,0,0,1.42,1,1,0,0,0,1.42,0l3.28-3.29A1,1,0,1,0,72,69.21Z"/></svg>