<svg width="25.600005" height="25.600001" xmlns="http://www.w3.org/2000/svg">

 <g>
  <title>background</title>
  <rect fill="none" id="canvas_background" height="402" width="582" y="-1" x="-1"/>
 </g>
 <g>
  <title>Layer 1</title>
  <path fill="#000000" fill-rule="evenodd" id="path3318" d="m7.820477,21.94728l-0.126929,-0.134415c-0.570645,-0.589942 -0.570645,-1.545798 0.002133,-2.137872c0.705035,-0.731823 1.721529,-1.78582 2.775351,-2.879293l0.202662,-0.210158l-0.418121,-0.081077c-0.749832,-0.162153 -1.580733,-0.434191 -2.26337,-0.889712c-0.577043,-0.384048 -1.078353,-0.740364 -1.351413,-1.156416c-0.315717,-0.480057 -0.307186,-0.992124 -0.03093,-1.571398c0.371185,-0.771292 1.404742,-1.323897 2.597226,-0.350976c1.199947,0.980393 3.183865,0.989991 3.195599,0.989991c0.010664,0 1.994582,-0.009598 3.193472,-0.989991c1.193548,-0.975053 2.226035,-0.424587 2.596157,0.352045c0.277319,0.578205 0.284788,1.090271 -0.029867,1.570328c-0.274123,0.416051 -0.775433,0.772367 -1.351407,1.156416c-0.679441,0.452325 -1.502873,0.722224 -2.246313,0.885441l-0.415982,0.082146l0.205858,0.213359l2.77749,2.879293c0.573841,0.592074 0.573841,1.54793 0,2.140004l-0.127998,0.133346c-0.579176,0.598477 -1.522069,0.597414 -2.102309,0c-0.531183,-0.550466 -1.235149,-1.280157 -1.997785,-2.071721l-0.490652,-0.509934l-2.488424,2.581655c-0.286927,0.295505 -0.665574,0.448061 -1.052759,0.449123c-0.382919,-0.001063 -0.763699,-0.152549 -1.051689,-0.450186zm1.529538,-0.554737l2.776414,-2.880362c0.156795,-0.163216 0.418121,-0.163216 0.57491,0c1.053822,1.092403 2.069246,2.146401 2.775351,2.880362c0.264522,0.273101 0.689042,0.272032 0.952494,0l0.127998,-0.133352c0.273053,-0.282699 0.273053,-0.745692 0,-1.028391l-2.777484,-2.879299l-0.749839,-0.777695c-0.229326,-0.238966 -0.084265,-0.640078 0.246389,-0.675283c0.883166,-0.094946 2.173776,-0.339245 3.092138,-0.950522c0.60584,-0.403251 0.95676,-0.673151 1.12529,-0.929181c0.125859,-0.192024 0.163194,-0.396848 -0.023468,-0.78623c-0.158928,-0.333912 -0.600505,-0.704091 -1.367407,-0.076812c-1.446342,1.180946 -3.711852,1.170279 -3.700118,1.170279c0.010664,0 -2.254838,0.010668 -3.702244,-1.170279c-0.763706,-0.623014 -1.209548,-0.254967 -1.368476,0.077875c-0.186662,0.388319 -0.148264,0.593143 -0.022398,0.785167c0.16746,0.25603 0.519443,0.525929 1.125283,0.929181c0.924767,0.615548 2.230307,0.859841 3.112403,0.951585c0.330654,0.034142 0.477848,0.435254 0.247459,0.67422l-0.746636,0.777695c-1.055955,1.093473 -2.072448,2.14747 -2.777484,2.879299c-0.27199,0.282699 -0.27199,0.745692 0.002133,1.03053l0.124796,0.132283c0.132258,0.135484 0.306116,0.203755 0.475715,0.203755c0.171726,0 0.343451,-0.067207 0.476779,-0.204824z"/>
  <path fill="#000000" fill-rule="evenodd" id="path3320" d="m7.207168,7.600947c0,-2.871827 2.326306,-5.200647 5.196586,-5.200647c2.868147,0 5.196586,2.32882 5.196586,5.200647c0,2.870764 -2.328439,5.197451 -5.196586,5.197451c-2.87028,0 -5.196586,-2.326688 -5.196586,-5.197451zm9.593201,0c0,-2.431232 -1.971121,-4.400547 -4.396615,-4.400547c-2.427634,0 -4.396621,1.969315 -4.396621,4.400547c0,2.428043 1.968988,4.397352 4.396621,4.397352c2.425494,0 4.396615,-1.969309 4.396615,-4.397352zm-7.157036,0c0,-1.526588 1.236219,-2.765144 2.760421,-2.765144c1.524202,0 2.760414,1.238555 2.760414,2.765144c0,1.525525 -1.237282,2.758747 -2.760414,2.758747c-1.523139,0 -2.760421,-1.233222 -2.760421,-2.758747zm4.72087,0c0,-1.086 -0.878894,-1.965044 -1.96045,-1.965044c-1.081556,0 -1.960456,0.879044 -1.960456,1.965044c0,1.082805 0.877831,1.958647 1.960456,1.958647c1.082619,0 1.96045,-0.875842 1.96045,-1.958647z"/>
  <path fill="#000000" fill-rule="evenodd" id="path3322" d="m0,23.261578l0,-20.923151c0,-1.289761 1.047423,-2.338431 2.338034,-2.338431l20.923937,0c1.289547,0 2.338034,1.04867 2.338034,2.338431l0,20.923151c0,1.290824 -1.048487,2.338425 -2.338034,2.338425l-20.923937,0c-1.29061,0 -2.338034,-1.047601 -2.338034,-2.338425zm24.800039,0l0,-20.923151c0,-0.847041 -0.691175,-1.538332 -1.538069,-1.538332l-20.923937,0c-0.847964,0 -1.538069,0.691291 -1.538069,1.538332l0,20.923151c0,0.848104 0.690105,1.538325 1.538069,1.538325l20.923937,0c0.846894,0 1.538069,-0.690221 1.538069,-1.538325z"/>
 </g>
</svg>