<svg id="Layer_1" data-name="Layer 1" xmlns="http://www.w3.org/2000/svg" viewBox="0 0 128 128" fill="#626e79">
<path d="M125.87,67.44h-2.14v-37a1,1,0,0,0-1-1H100.14a1,1,0,0,0-1,1v37H78.05a4.28,4.28,0,0,0-4.22-3.63h-2V61.22H90.68a4.8,4.8,0,0,0,4.79-4.79v-29a4.79,4.79,0,0,0-4.79-4.78H37.32a4.79,4.79,0,0,0-4.79,4.78v29a4.8,4.8,0,0,0,4.79,4.79H56.18v2.59h-2A4.28,4.28,0,0,0,50,67.44H28.86v-37a1,1,0,0,0-1-1H5.27a1,1,0,0,0-1,1v37H2.13a1,1,0,0,0-1,1V94a1,1,0,0,0,1,1H5.36l.91,9.41a1,1,0,0,0,1,.9h3.46a1,1,0,0,0,1-.9L12.63,95H115.37l.91,9.41a1,1,0,0,0,1,.9h3.46a1,1,0,0,0,1-.9l.91-9.41h3.23a1,1,0,0,0,1-1V68.44A1,1,0,0,0,125.87,67.44Zm-4.14-36V61.58H101.14V31.46ZM101.14,63.58h20.59v3.86H101.14Zm7.51,5.86H115v1.24h-6.34ZM31.89,88.32a.88.88,0,0,0,.32.07H43a1.06,1.06,0,0,0,.19,0,1.62,1.62,0,0,0,.19,0h5.48a1.06,1.06,0,0,0,.19,0,1.62,1.62,0,0,0,.19,0H78.78a1.62,1.62,0,0,0,.19,0,1.06,1.06,0,0,0,.19,0h5.48a1.62,1.62,0,0,0,.19,0,1.06,1.06,0,0,0,.19,0H95.79a.88.88,0,0,0,.32-.07V93H31.89ZM78,77v9.43H50V77Zm5.86,0v9.43H80V77ZM48,86.39H44.17V77H48Zm48.08.06a1.13,1.13,0,0,0-.32-.06h-10V76a1,1,0,0,0-1-1H43.17a1,1,0,0,0-1,1V86.39h-10a1.13,1.13,0,0,0-.32.06v-17H96.11ZM37.32,24.67H90.68a2.78,2.78,0,0,1,2.63,1.9H89.56a1,1,0,0,0,0,2h3.91V55.31H55.29L60.85,50a1,1,0,0,0-1.38-1.45l-7.08,6.75H49.5L59.23,46a1,1,0,1,0-1.38-1.44L46.6,55.31H34.53V28.57h50.3a1,1,0,0,0,0-2H34.69A2.78,2.78,0,0,1,37.32,24.67ZM34.69,57.31H93.31a2.77,2.77,0,0,1-2.63,1.91H37.32A2.77,2.77,0,0,1,34.69,57.31Zm23.49,3.91H69.82v2.59H58.18Zm-4,4.59H73.83A2.29,2.29,0,0,1,76,67.44H52A2.29,2.29,0,0,1,54.17,65.81ZM26.86,31.46V61.58H6.27V31.46ZM6.27,63.58H26.86v3.86H6.27ZM13,69.44h6.34v1.24H13Zm-9.88,0H11v2.24a1,1,0,0,0,1,1h8.34a1,1,0,0,0,1-1V69.44h8.54V93H3.13Zm6.69,33.89H8.17L7.37,95h3.25Zm110,0h-1.65L117.37,95h3.26Zm5-10.31H98.11V69.44h8.54v2.24a1,1,0,0,0,1,1H116a1,1,0,0,0,1-1V69.44h7.88Z"/><path d="M16.56,56.23a5.11,5.11,0,1,0-5.1-5.11A5.11,5.11,0,0,0,16.56,56.23Zm0-8.21a3.11,3.11,0,1,1-3.1,3.1A3.1,3.1,0,0,1,16.56,48Z"/><path d="M16.56,59.7A8.58,8.58,0,1,0,8,51.12,8.59,8.59,0,0,0,16.56,59.7Zm0-15.15A6.58,6.58,0,1,1,10,51.12,6.58,6.58,0,0,1,16.56,44.55Z"/><path d="M16.56,40.42a3.21,3.21,0,1,0-3.2-3.21A3.21,3.21,0,0,0,16.56,40.42Zm0-4.41a1.21,1.21,0,1,1-1.2,1.2A1.21,1.21,0,0,1,16.56,36Z"/><path d="M111.44,56.23a5.11,5.11,0,1,0-5.11-5.11A5.11,5.11,0,0,0,111.44,56.23Zm0-8.21a3.11,3.11,0,1,1-3.11,3.1A3.1,3.1,0,0,1,111.44,48Z"/><path d="M111.44,59.7a8.58,8.58,0,1,0-8.58-8.58A8.58,8.58,0,0,0,111.44,59.7Zm0-15.15a6.58,6.58,0,1,1-6.58,6.57A6.58,6.58,0,0,1,111.44,44.55Z"/><path d="M111.44,40.42a3.21,3.21,0,1,0-3.21-3.21A3.21,3.21,0,0,0,111.44,40.42Zm0-4.41a1.21,1.21,0,1,1-1.21,1.2A1.2,1.2,0,0,1,111.44,36Z"/><path d="M55.45,80.71h17.1a1,1,0,0,0,0-2H55.45a1,1,0,0,0,0,2Z"/><path d="M60.84,82.73a1,1,0,0,0-.9-.28l-.18.06-.18.09-.15.13a1,1,0,0,0-.21.32.84.84,0,0,0-.08.38,1,1,0,0,0,1,1,1,1,0,0,0,1-1,.84.84,0,0,0-.08-.38A.87.87,0,0,0,60.84,82.73Z"/><path d="M57.28,82.73a1,1,0,0,0-1.42,0,1,1,0,0,0-.21,1.09,1,1,0,0,0,1.84,0,1,1,0,0,0,.08-.39,1,1,0,0,0-.29-.7Z"/><path d="M52.08,83.82a1.07,1.07,0,0,0,.54.54,1,1,0,0,0,.38.07,1,1,0,0,0,.38-.07.91.91,0,0,0,.33-.22,1,1,0,0,0,.22-.32,1,1,0,0,0,.07-.39,1,1,0,0,0-.07-.38,1.21,1.21,0,0,0-.22-.32,1,1,0,0,0-1.41,0,.87.87,0,0,0-.22.32,1,1,0,0,0-.08.38A1,1,0,0,0,52.08,83.82Z"/></svg>