<svg id="Layer_1" data-name="Layer 1" xmlns="http://www.w3.org/2000/svg" viewBox="0 0 128 128"><title>iStar_Design_Interior_Design_LineIcons_Outlined-10</title><path d="M6.43,95.26h.84V99.5a1,1,0,0,0,1,1H20.13l1.24,17.77a1,1,0,0,0,1,.93h5a1,1,0,0,0,1-.93l1.24-17.77H98.39l1.24,17.77a1,1,0,0,0,1,.93h5a1,1,0,0,0,1-.93l1.24-17.77h11.86a1,1,0,0,0,1-1V95.26h.84a1,1,0,0,0,1-1V71.52a1,1,0,0,0-1-1h-15a17.93,17.93,0,0,0-.67-18.87c-5.92-9.14-3.15-12.48-3.14-12.5a1,1,0,0,0-.72-1.69H99.35a56,56,0,0,1,.65-5.6,8.87,8.87,0,0,0,2.74.49,3.91,3.91,0,0,0,3-1.19c1.24-1.38,4-2.29,5-2.53a1,1,0,1,0-.48-1.94c-.16,0-4.09,1-6,3.13-.8.89-2.71.47-3.89.05.88-4.24,2.48-9.11,5.38-12.34a1,1,0,0,0-1.49-1.34,20.12,20.12,0,0,0-3.07,4.71c-2-1.07-4.15-2.72-3.74-3.63.75-1.65,2.33-5.75.82-8a1,1,0,1,0-1.66,1.11c.63,1,.24,3.4-1,6.09s2.76,5.25,4.75,6.29a50.18,50.18,0,0,0-3,14.72H97a21,21,0,0,0-.46-4.17,23.09,23.09,0,0,0-.89-3,18.89,18.89,0,0,0-.76-1.79,8.77,8.77,0,0,1-.4-1.92c-.2-1.43-.39-2.79-1.15-3.55a1,1,0,0,0-1.42,0,1,1,0,0,0,0,1.41,6.92,6.92,0,0,1,.59,2.42,9.29,9.29,0,0,0,.58,2.51c.24.49.47,1,.69,1.61.11.31.21.63.31,1a3.13,3.13,0,0,1-2.31-1.48,23.45,23.45,0,0,0-4-4.35,1,1,0,0,0-1.41.12,1,1,0,0,0,.12,1.41,22.11,22.11,0,0,1,3.55,3.88A5.08,5.08,0,0,0,94.47,34l.21,0a19.42,19.42,0,0,1,.36,3.5H91.92a1,1,0,0,0-.91.6,1,1,0,0,0,.17,1.08s2.8,3.37-3.12,12.51a17.93,17.93,0,0,0-.67,18.87H64.46a19.45,19.45,0,0,0,1.44-3.8h1.69a4.17,4.17,0,1,0,0-8.34h-1a24.59,24.59,0,0,0-.41-2.84,1,1,0,0,0-1-.8H50.7a1,1,0,0,0-1,.8,24.38,24.38,0,0,0-.52,5.05,22.11,22.11,0,0,0,2.21,9.93H42.89v-7a1,1,0,0,0-1-1H39.67V60.32h2.22a1,1,0,0,0,1-1V54a1,1,0,0,0-1-1H11.48a1,1,0,0,0-1,1v4.31H8.26a1,1,0,0,0-1,1v4.22a1,1,0,0,0,1,1h2.22v6H6.43a1,1,0,0,0-1,1V94.26A1,1,0,0,0,6.43,95.26Zm20,21.94H23.3l-1.16-16.7h5.47Zm78.26,0h-3.14l-1.17-16.7h5.47Zm14-18.7H9.27V95.26H118.73Zm1.84-5.24H65V72.52h55.57ZM89.7,70.48a16,16,0,0,1,0-17.75c4.52-7,4.43-11.17,3.78-13.27h7c-.65,2.1-.74,6.29,3.78,13.27a15.81,15.81,0,0,1,0,17.75s0,0,0,0H89.72S89.71,70.49,89.7,70.48ZM67.59,60.38a2.17,2.17,0,1,1,0,4.34H66.31a24.4,24.4,0,0,0,.35-4.13v-.21Zm-16.38.21a23.62,23.62,0,0,1,.32-3.85H64.34a22.56,22.56,0,0,1,.32,3.85,19.18,19.18,0,0,1-2.5,9.93H53.71A19.18,19.18,0,0,1,51.21,60.59ZM12.48,55H40.89v3.31H12.48ZM9.26,60.32h1.93a.88.88,0,0,0,.29.06,1,1,0,0,0,.29-.06h25.9v2.22H9.26Zm3.22,4.22H40.89v6H12.48Zm-5.05,8H63V93.26H7.43Z"/><path d="M102.75,83.89h6.69a1,1,0,0,0,0-2h-6.69a1,1,0,0,0,0,2Z"/><path d="M12.29,83.89h7.33a1,1,0,1,0,0-2H12.29a1,1,0,0,0,0,2Z"/><path d="M100,55.78a1,1,0,0,0-.43,1.35s1.49,3-.07,8.3a1,1,0,0,0,.67,1.25,1.45,1.45,0,0,0,.29,0,1,1,0,0,0,1-.72c1.81-6.13,0-9.65-.08-9.8A1,1,0,0,0,100,55.78Z"/></svg>