<svg id="Layer_1" data-name="Layer 1" xmlns="http://www.w3.org/2000/svg" viewBox="0 0 128 128"><title>iStar_Design_Interior_Design_LineIcons_Outlined-28</title><path d="M3.93,112.33H16.32a1,1,0,1,0,0-2h-5.2V66.51a3.54,3.54,0,0,0,0-6.81V43.45A25.76,25.76,0,0,1,57.73,28.31a16.39,16.39,0,0,0-14.11,16.2,1,1,0,0,0,1,1H75.35a1,1,0,0,0,1-1A16.38,16.38,0,0,0,60,28.14a1.21,1.21,0,0,0-.09-.2A27.77,27.77,0,0,0,9.12,43.45V59.7a3.54,3.54,0,0,0,0,6.81v43.82H3.93a1,1,0,0,0,0,2Zm69.41-73.1H66.53a1,1,0,0,0,0,2H74a15.48,15.48,0,0,1,.36,2.28H45.65a14.36,14.36,0,0,1,27.69-4.28ZM8.56,63.11a1.57,1.57,0,1,1,1.56,1.56A1.57,1.57,0,0,1,8.56,63.11Z"/><path d="M49.82,112.33a1,1,0,1,0,0-2H33.68a1,1,0,1,0,0,2Z"/><path d="M60.39,112.33a1,1,0,0,0,0-2H55.53a1,1,0,0,0,0,2Z"/><path d="M112.58,75v9.55H72v-22a2.45,2.45,0,0,1,2.45-2.45H107a5.47,5.47,0,0,1,5.46,5.46v3a1,1,0,0,0,2,0v-3A7.47,7.47,0,0,0,107,58.05H74.47A4.45,4.45,0,0,0,71,59.72a4.42,4.42,0,0,0-3.45-1.67H35.07a7.46,7.46,0,0,0-7.46,7.46v3a1,1,0,0,0,2,0v-3a5.47,5.47,0,0,1,5.46-5.46h32.5A2.45,2.45,0,0,1,70,62.5v22H29.61V75a6.25,6.25,0,1,0-12.49,0V96.11a6.25,6.25,0,0,0,6.24,6.25h4.32L25,111a1,1,0,0,0,.15.89,1,1,0,0,0,.81.4h2.65a1,1,0,0,0,.81-.41l6.92-9.56h69.55l6.92,9.56a1,1,0,0,0,.81.41h9.33a1,1,0,0,0,0-2H117l-2.47-8h4.31a6.25,6.25,0,0,0,6.24-6.25V75a6.25,6.25,0,1,0-12.49,0ZM27.93,100.36a6.23,6.23,0,0,0,1.68-4.25V94.24h83v1.87a6.23,6.23,0,0,0,1.68,4.25Zm84.65-8.12H72V86.55h40.56ZM70,86.55v5.69H29.61V86.55Zm-50.9,9.56V75a4.25,4.25,0,1,1,8.49,0V96.11a4.25,4.25,0,1,1-8.49,0Zm9,14.22H27.3l2.47-8h4.09Zm86.82,0h-.79l-5.77-8h4.08ZM123.07,75V96.11a4.25,4.25,0,1,1-8.49,0V75a4.25,4.25,0,1,1,8.49,0Z"/><path d="M61.39,41.23H62.6a1,1,0,0,0,0-2H61.39a1,1,0,0,0,0,2Z"/><path d="M93.43,63.27a1,1,0,1,0,0,2h7.38a1,1,0,1,0,0-2Z"/><path d="M88.12,63.27a1,1,0,0,0,0,2h1.5a1,1,0,1,0,0-2Z"/></svg>