<svg id="Layer_1" data-name="Layer 1" xmlns="http://www.w3.org/2000/svg" viewBox="0 0 128 128" fill="#626e79">
<path d="M31.22,47v5a1,1,0,0,0,1,1h4v69.26a1,1,0,0,0,2,0V105H89.77v17.26a1,1,0,0,0,2,0V53h4a1,1,0,0,0,1-1V47a1,1,0,0,0-1-1H32.22A1,1,0,0,0,31.22,47Zm7,56V68.42H89.77V103Zm-5-55H94.78v3H48.66a1,1,0,0,0,0,2H89.77V66.42H38.23V53h3.93a1,1,0,0,0,0-2H33.22Z"/><path d="M55.64,60.68H72.36a1,1,0,0,0,0-2H55.64a1,1,0,0,0,0,2Z"/><path d="M88.25,32.81a1,1,0,0,0,1-1v-4h1.54a1,1,0,0,0,.79-.39,1,1,0,0,0,.17-.87L86,5.53a1,1,0,0,0-1-.74H75.55a1,1,0,0,0-1,.74l-5.75,21a1,1,0,0,0,1,1.26h9.5V37.87H75.77a5.6,5.6,0,0,0-5.6,5.6,1,1,0,0,0,1,1H89.41a1,1,0,0,0,1-1,5.6,5.6,0,0,0-5.6-5.6H81.29V27.79h6v4A1,1,0,0,0,88.25,32.81Zm0,9.66h-16a3.6,3.6,0,0,1,3.46-2.6h9A3.6,3.6,0,0,1,88.27,42.47Zm1.21-16.68H85.35l-2.06-19h1Zm-12.23,0,2.06-19h2l2.07,19Zm-.94-19h1l-2.06,19H71.1Z"/></svg>