<svg id="Layer_1" data-name="Layer 1" xmlns="http://www.w3.org/2000/svg" viewBox="0 0 128 128" fill="#626e79">
<path d="M124.25,41.62h-9.76V19.3a1.09,1.09,0,0,0-.08-.39,1,1,0,0,0-.54-.54,1,1,0,0,0-.38-.07H80.65a1,1,0,0,0-.38.07,1,1,0,0,0-.55.54,1.07,1.07,0,0,0-.07.39V41.62H72A2.44,2.44,0,0,1,74.24,40a1,1,0,0,0,1-1V11.18a1,1,0,0,0-1-1,2.45,2.45,0,0,1-2.42-2.4.88.88,0,0,0,0-.16,1,1,0,0,0-1-1.06h-19a1,1,0,0,0-.73.32,1,1,0,0,0-.27.74.6.6,0,0,1,0,.12,2.45,2.45,0,0,1-2.41,2.44,1,1,0,0,0-1,1V39a1,1,0,0,0,1,1,2.43,2.43,0,0,1,2.26,1.62H20.66a1,1,0,0,0-1,1v8.87a1,1,0,0,0,1,1h7.92l4,7.57a1,1,0,0,0,.89.54h3.05a1,1,0,0,0,1-1V52.49h70.33l4,7.57a1,1,0,0,0,.89.54h3.06a1,1,0,0,0,1-1V52.49h7.52a1,1,0,0,0,1-1V42.62A1,1,0,0,0,124.25,41.62ZM89.05,27.7h16v6.51h-16Zm18-.59,5.4-5.4V40.2l-5.4-5.4Zm-1.42-1.41H88.46l-5.4-5.4h28ZM87.05,27.11V34.8l-5.4,5.4V21.71Zm1.41,9.1h17.21l5.41,5.41h-28Zm-39,1.91V12.05a4.47,4.47,0,0,0,3.34-3.49H69.9a4.45,4.45,0,0,0,3.33,3.49V38.12a4.47,4.47,0,0,0-3.33,3.5H52.81A4.46,4.46,0,0,0,49.48,38.12Zm-14,20.48H34l-3.2-6.11h4.65Zm79.24,0h-1.45l-3.21-6.11h4.66Zm8.52-8.11H21.66V43.62H123.25Z"/><path d="M107.34,102.46h-5.09V70.33a1,1,0,0,0-1-1H77.39a1,1,0,0,0-1,1v32.13H73.83V81.62a1,1,0,0,0-1-1H51a1,1,0,0,0-1,1v20.84H40.51l3.86-3.86a1,1,0,0,0,.29-.71v-23a1,1,0,0,0-.29-.7L38.8,68.61a1,1,0,0,0-.7-.3h-23a1,1,0,0,0-.71.3L8.81,74.17a1,1,0,0,0-.29.7v23a1,1,0,0,0,.29.71l3.85,3.86H3.75a1,1,0,0,0-1,1v8.87a1,1,0,0,0,1,1h7.92l4,7.57a1,1,0,0,0,.88.54h3.06a1,1,0,0,0,1-1v-7.11H90.91l4,7.57a1,1,0,0,0,.89.54h3.06a1,1,0,0,0,1-1v-7.11h7.52a1,1,0,0,0,1-1v-8.87A1,1,0,0,0,107.34,102.46ZM78.39,71.33h21.86v31.13H78.39ZM52,82.62H71.83v19.84H52ZM10.52,97.48V75.29l5-5H37.68l5,5V97.48l-5,5H15.49Zm8.06,22H17.13l-3.2-6.11h4.65Zm79.24,0H96.37l-3.21-6.11h4.66Zm8.52-8.11H4.75v-6.87H106.34Z"/><path d="M95,75.56H83.62a1,1,0,0,0-1,1V97.23a1,1,0,0,0,1,1H95a1,1,0,0,0,1-1V76.56A1,1,0,0,0,95,75.56ZM94,96.23h-9.4V77.56H94Z"/><path d="M66.53,86.92H57.29a1,1,0,0,0-1,1v9.24a1,1,0,0,0,1,1h9.24a1,1,0,0,0,1-1V87.92A1,1,0,0,0,66.53,86.92Zm-1,9.24H58.29V88.92h7.24Z"/><path d="M35.62,76.35H17.55a1,1,0,0,0-1,1V95.42a1,1,0,0,0,1,1H35.62a1,1,0,0,0,1-1V77.35A1,1,0,0,0,35.62,76.35Zm-1,18.07H18.55V78.35H34.62Z"/><path d="M66.29,17H56.43a1,1,0,0,0-1,1V32.21a1,1,0,0,0,1,1h9.86a1,1,0,0,0,1-1V18A1,1,0,0,0,66.29,17Zm-1,14.25H57.43V19h7.86Z"/></svg>