<svg id="Layer_1" data-name="Layer 1" xmlns="http://www.w3.org/2000/svg" viewBox="0 0 128 128"><title>iStar_Design_Interior_Design_LineIcons_Outlined-89</title><path d="M124.36,14.72H100.21a1,1,0,0,0-1,1V38.86H51.93a1,1,0,0,0-1,1V63H3.64a1,1,0,0,0-1,1V88.14a1,1,0,0,0,1,1H26.79v23.14a1,1,0,0,0,1,1H51.93a1,1,0,0,0,1-1V65H75.07v47.28a1,1,0,0,0,1,1h24.14a1,1,0,0,0,1-1V89.14h23.15a1,1,0,0,0,1-1V64a1,1,0,0,0-1-1H101.21V40.86h23.15a1,1,0,0,0,1-1V15.72A1,1,0,0,0,124.36,14.72ZM99.21,87.14H77.07V40.86H99.21Zm-48.28,0H43.61V72a1,1,0,0,0-2,0V87.14H38.89V72a1,1,0,0,0-2,0V87.14H34.16V72a1,1,0,0,0-2,0V87.14H28.79V65H50.93ZM4.64,65H26.79V87.14H4.64Zm24.15,46.28V89.14H50.93v22.14ZM52.93,63V40.86H75.07V63Zm46.28,48.28H77.07V89.14H99.21ZM123.36,65V87.14H101.21V65Zm0-26.14h-9.42l7.57-14.44a1,1,0,0,0-1.78-.93l-8,15.37h-1.4V23.75a1,1,0,0,0-2,0V38.86H106V23.75a1,1,0,1,0-2,0V38.86h-2.74V16.72h22.15Z"/><path d="M104.91,75.24h14.75a1,1,0,0,0,0-2H104.91a1,1,0,0,0,0,2Z"/><path d="M119.66,82.69H104.91a1,1,0,0,0,0,2h14.75a1,1,0,0,0,0-2Z"/><path d="M104.91,80h14.75a1,1,0,0,0,0-2H104.91a1,1,0,0,0,0,2Z"/><path d="M81.82,81.09a1,1,0,0,0,1-1V47.64a1,1,0,1,0-2,0V80.09A1,1,0,0,0,81.82,81.09Z"/></svg>