<svg id="Layer_1" data-name="Layer 1" xmlns="http://www.w3.org/2000/svg" viewBox="0 0 128 128" fill="#626e79">
<path d="M83.22,70.91h5.65a1,1,0,0,0,0-2H83.22a1,1,0,0,0,0,2Z"/><path d="M39.13,70.91h5.65a1,1,0,0,0,0-2H39.13a1,1,0,1,0,0,2Z"/><path d="M64.18,18.13a1,1,0,0,0,.63-.22l5.7-4.67a1,1,0,1,0-1.27-1.54l-5.7,4.66a1,1,0,0,0,.64,1.77Z"/><path d="M69.07,17.05l-3.31,2.7A1,1,0,0,0,67,21.3l3.3-2.7a1,1,0,0,0,.14-1.41A1,1,0,0,0,69.07,17.05Z"/><path d="M58.61,45.46a1,1,0,0,0,.62-.22l10.18-8.16a1,1,0,0,0,.15-1.4,1,1,0,0,0-1.4-.16L58,43.68a1,1,0,0,0-.15,1.4A1,1,0,0,0,58.61,45.46Z"/><path d="M66.74,41.78l-3.31,2.71a1,1,0,0,0-.14,1.4,1,1,0,0,0,.78.37A1,1,0,0,0,64.7,46l3.3-2.7a1,1,0,0,0-1.26-1.55Z"/><path d="M38.79,26.23a1,1,0,0,0-1,1V63.59H17.61a1,1,0,0,0,0,2h3v9.64a1,1,0,0,0,1,1h.53a15.87,15.87,0,0,0-2,7.68,24.39,24.39,0,0,0,2.05,9.19,43.65,43.65,0,0,1,3.16,17.41v14a1,1,0,0,0,1,1h2.39a1,1,0,0,0,1-.93l1.1-14c.68-11.42-1-15.61-2.39-19a15.63,15.63,0,0,1-1.53-6.74,7.36,7.36,0,0,1,3.17-6.19,20.69,20.69,0,0,1,4.3,3.77,1,1,0,0,0,.69.37,1,1,0,0,0,.74-.25,9.32,9.32,0,0,1,7.28-1.86,20.64,20.64,0,0,1,5.75,1.9,11.93,11.93,0,0,0,5.79,1.49,6.46,6.46,0,0,0,4.69-2,6.48,6.48,0,0,0,9.38,0,6.46,6.46,0,0,0,4.69,2,11.93,11.93,0,0,0,5.79-1.49,20.64,20.64,0,0,1,5.75-1.9,9.33,9.33,0,0,1,7.28,1.86,1,1,0,0,0,.74.25,1,1,0,0,0,.69-.37,20.69,20.69,0,0,1,4.3-3.77,7.36,7.36,0,0,1,3.17,6.19,15.49,15.49,0,0,1-1.53,6.74c-1.37,3.36-3.07,7.55-2.39,19l1.1,14a1,1,0,0,0,1,.93h2.39a1,1,0,0,0,1-1v-14a43.65,43.65,0,0,1,3.16-17.41,24.39,24.39,0,0,0,2.05-9.19,15.77,15.77,0,0,0-2-7.68h.54a1,1,0,0,0,1-1V65.59h3a1,1,0,1,0,0-2H90.21V27.23a1,1,0,0,0-2,0v2h-2.8C85,14.41,75.56,2.52,64,2.52S43,14.41,42.59,29.21h-2.8v-2A1,1,0,0,0,38.79,26.23ZM63,65.59v8.64H22.57V65.59ZM24.9,84.86a17.61,17.61,0,0,0,1.68,7.49c1.36,3.34,2.9,7.13,2.24,18.08l-1,13h-.46v-13a46,46,0,0,0-3.28-18.1,22.76,22.76,0,0,1-1.93-8.5,13.86,13.86,0,0,1,2.1-7.34l.61,0a11.52,11.52,0,0,1,3.35,1A9.31,9.31,0,0,0,24.9,84.86Zm67.82-4.41a11.5,11.5,0,0,0-8.15-1.72,22.28,22.28,0,0,0-6.25,2.06,10,10,0,0,1-4.94,1.3,4.5,4.5,0,0,1-3.84-2.16,1,1,0,0,0-.85-.47,1,1,0,0,0-.85.47,4.49,4.49,0,0,1-7.68,0,1,1,0,0,0-.85-.47,1,1,0,0,0-.85.47,4.52,4.52,0,0,1-3.84,2.16,10,10,0,0,1-4.94-1.3,22.28,22.28,0,0,0-6.25-2.06,11.48,11.48,0,0,0-8.15,1.72,22,22,0,0,0-5.38-4.22H98.1A22,22,0,0,0,92.72,80.45Zm11.22,12a46,46,0,0,0-3.28,18.1v13h-.46l-1-13c-.66-11,.88-14.76,2.25-18.1a17.62,17.62,0,0,0,1.67-7.49,9.31,9.31,0,0,0-3.29-7.25,11.52,11.52,0,0,1,3.35-1l.61,0a13.86,13.86,0,0,1,2.1,7.34A22.76,22.76,0,0,1,103.94,92.41Zm1.49-18.18H65V65.59h40.43ZM64,4.52c10.72,0,19.43,11.53,19.43,25.69S74.72,55.9,64,55.9,44.57,44.38,44.57,30.21,53.29,4.52,64,4.52ZM42.59,31.21C43,46,52.44,57.9,64,57.9S85,46,85.41,31.21h2.8V63.59H39.79V31.21Z"/></svg>