<?xml version="1.0" encoding="UTF-8"?>
<!DOCTYPE svg PUBLIC "-//W3C//DTD SVG 1.1//EN" "http://www.w3.org/Graphics/SVG/1.1/DTD/svg11.dtd">
<!-- Creator: CorelDRAW Home & Student X7 -->
<svg xmlns="http://www.w3.org/2000/svg" xml:space="preserve" width="5602px" height="3311px" version="1.1" style="shape-rendering:geometricPrecision; text-rendering:geometricPrecision; image-rendering:optimizeQuality; fill-rule:evenodd; clip-rule:evenodd"
viewBox="0 0 5320 3145"
 xmlns:xlink="http://www.w3.org/1999/xlink">
 <defs>
  <style type="text/css">
   <![CDATA[
    .fil0 {fill:#003E50}
    .fil1 {fill:#420917;fill-rule:nonzero}
   ]]>
  </style>
 </defs>
 <g id="Слой_x0020_1">
  <metadata id="CorelCorpID_0Corel-Layer"/>
  <g id="_579996568">
   <path class="fil0" d="M1814 972c-41,-52 -86,-82 -132,-88 -203,0 -433,297 -433,549 0,66 24,125 68,168 -271,-41 -564,-57 -879,-49l5 -150c271,-248 663,-494 1175,-741 -346,-58 -729,-72 -1150,-42 5,-164 10,-319 14,-455 6,-174 -259,-226 -259,-75 0,183 3,367 7,551 -68,7 -137,15 -207,25 -33,21 -31,38 7,49 67,-11 134,-18 201,-23 6,250 16,501 27,752 -56,52 -109,105 -159,158 -28,53 -5,76 68,68 33,-6 67,-11 101,-15 24,493 51,986 70,1479 0,37 54,-19 54,-108 0,-51 20,-682 43,-1390 587,-50 1218,38 1882,284 27,10 41,19 70,13 21,-5 34,-12 44,-14 -249,-138 -570,-210 -885,-277 80,-39 164,-111 234,-203 -7,-10 -15,-17 -26,-26 -64,69 -170,179 -281,179 -58,0 -71,-70 -71,-123 0,-13 2,-27 2,-40 261,-104 395,-204 410,-456zm2626 948c13,6 38,17 59,12 19,-6 34,-12 42,-14 -273,-152 -626,-231 -981,-296 184,-87 306,-275 306,-489 0,-98 -26,-144 -81,-144 -9,0 -19,1 -28,1 -31,-53 -64,-92 -97,-109 -47,0 -103,22 -158,63 -145,106 -251,305 -251,469 0,69 19,127 52,171 -279,-33 -581,-42 -905,-26 267,-300 711,-598 1331,-897 -464,-78 -996,-77 -1595,4 -33,21 -31,38 7,49 363,-59 735,-29 1117,93 -434,249 -784,513 -1049,794 -27,53 -4,76 68,68 670,-111 1390,-39 2163,251zm-3974 -1234c224,7 451,48 681,121 -265,152 -499,310 -700,473 6,-202 13,-404 19,-594zm1242 337c-8,140 -129,266 -292,347 49,-191 180,-332 292,-347zm1814 155c51,-66 123,-132 212,-158 14,21 20,50 20,103 0,239 -134,436 -317,476 -20,-6 -40,-60 -40,-109 0,-82 54,-218 125,-312zm667 -315c-17,7 -89,115 -168,295 -69,158 -115,330 -115,407 9,46 28,96 71,120 25,-14 58,-61 103,-124 80,-111 152,-196 247,-288 60,-58 120,-87 125,-87 -71,163 -85,226 -85,276 0,91 28,163 146,163 36,0 102,-35 133,-63 0,-9 -7,-26 -14,-31 -14,0 -43,16 -65,16 -24,0 -38,-9 -38,-60 0,-126 104,-329 160,-401 27,-33 44,-34 44,-39 -20,-38 -57,-83 -109,-83 -100,0 -244,152 -323,235 -35,37 -140,166 -204,236 12,-94 174,-312 220,-425 -22,-67 -74,-130 -128,-147zm1131 109c-41,-52 -86,-82 -132,-88 -203,0 -433,297 -433,549 0,123 83,220 224,235 97,-21 215,-109 308,-230 -8,-10 -16,-17 -27,-26 -64,69 -170,179 -281,179 -58,0 -71,-70 -71,-123 0,-13 2,-27 2,-40 261,-104 395,-204 410,-456zm-106 51c-7,140 -129,266 -292,347 49,-191 180,-332 292,-347z"/>
   <path class="fil1" d="M1402 2235c-6,-1 -12,-2 -20,-3 -7,0 -13,-1 -18,-1 -11,0 -20,2 -28,4 -8,3 -15,7 -21,13 -6,5 -10,13 -13,22 -3,9 -4,21 -4,34l0 43 84 0 0 40 -84 0 0 245 -47 0 0 -245 -50 0 0 -40 50 0 0 -43c0,-21 3,-38 8,-52 6,-14 13,-26 23,-35 10,-9 21,-15 34,-20 13,-4 27,-6 42,-6 10,0 18,0 26,1 8,1 14,2 18,4l0 39zm143 405c-15,0 -28,-2 -40,-5 -11,-3 -22,-8 -31,-14 -9,-5 -16,-12 -23,-20 -6,-8 -11,-17 -14,-27 -3,-7 -5,-15 -6,-24 -1,-8 -2,-18 -2,-28l0 -175 47 0 0 175c0,16 2,29 6,40 5,12 12,21 23,28 11,7 25,10 41,10 18,0 32,-3 43,-11 10,-8 18,-18 23,-31 3,-9 5,-21 5,-36l0 -175 47 0 0 176c0,9 -1,18 -2,26 -1,9 -3,16 -5,23 -4,10 -9,19 -15,27 -7,9 -14,16 -24,22 -9,6 -19,10 -32,14 -12,3 -25,5 -41,5zm361 -254l-3 0c-11,0 -22,1 -33,2 -10,3 -20,6 -30,10 -9,4 -17,9 -25,15 -7,6 -13,13 -19,21l0 198 -46 0 0 -285 36 0 9 46 1 0c4,-8 10,-15 17,-21 7,-6 14,-12 22,-17 9,-4 18,-8 28,-11 10,-3 21,-4 32,-4 2,0 4,0 6,0 2,0 4,0 5,1l0 45zm95 1l0 0c6,-7 11,-13 18,-18 6,-6 13,-11 21,-15 8,-5 16,-8 25,-10 10,-3 20,-4 31,-4 13,0 25,2 37,6 11,3 21,9 29,17 9,8 15,18 20,31 5,13 8,29 8,48l0 190 -47 0 0 -183c0,-24 -5,-42 -14,-53 -10,-11 -24,-16 -42,-16 -16,0 -31,4 -46,13 -15,9 -28,21 -39,37l0 202 -46 0 0 -285 36 0 9 40zm282 245l0 -285 46 0 0 285 -46 0zm-2 -351l0 -51 47 0 0 51 -47 0zm292 352c-4,1 -10,3 -19,4 -8,2 -18,3 -29,3 -15,0 -28,-2 -39,-6 -11,-3 -20,-9 -28,-16 -7,-7 -12,-15 -16,-25 -4,-10 -5,-20 -5,-32l0 -174 -55 0 0 -40 55 0 0 -78 46 0 0 78 85 0 0 40 -85 0 0 166c0,7 1,13 3,19 2,5 5,10 9,14 4,4 10,8 16,10 6,2 14,3 23,3 6,0 13,0 20,-1 7,-1 13,-3 19,-4l0 39zm175 7c-14,0 -28,-2 -40,-5 -11,-3 -22,-8 -31,-14 -9,-5 -16,-12 -22,-20 -7,-8 -11,-17 -15,-27 -3,-7 -5,-15 -6,-24 -1,-8 -2,-18 -2,-28l0 -175 47 0 0 175c0,16 2,29 6,40 5,12 13,21 23,28 11,7 25,10 41,10 18,0 32,-3 43,-11 11,-8 18,-18 23,-31 3,-9 5,-21 5,-36l0 -175 47 0 0 176c0,9 -1,18 -2,26 -1,9 -3,16 -5,23 -4,10 -9,19 -15,27 -6,9 -14,16 -23,22 -10,6 -20,10 -33,14 -12,3 -25,5 -41,5zm361 -254l-3 0c-11,0 -22,1 -33,2 -10,3 -20,6 -29,10 -10,4 -18,9 -26,15 -7,6 -13,13 -18,21l0 198 -47 0 0 -285 36 0 9 46 1 0c5,-8 10,-15 17,-21 7,-6 14,-12 23,-17 8,-4 17,-8 27,-11 10,-3 21,-4 32,-4 2,0 4,0 6,0 2,0 4,0 5,1l0 45zm161 -6c-11,0 -21,2 -31,6 -9,5 -17,10 -24,17 -7,8 -12,16 -16,26 -5,9 -7,20 -8,31l146 0c0,-11 -2,-22 -5,-31 -3,-10 -7,-19 -13,-26 -5,-7 -12,-13 -21,-17 -8,-4 -17,-6 -28,-6zm24 219c15,0 29,-1 42,-3 13,-3 25,-6 38,-11l0 39c-10,5 -23,9 -38,11 -15,3 -31,5 -48,5 -21,0 -40,-3 -58,-8 -18,-5 -33,-14 -46,-25 -13,-12 -23,-27 -31,-46 -7,-18 -11,-41 -11,-67 0,-26 4,-49 11,-68 7,-19 17,-35 29,-48 12,-12 25,-22 41,-28 16,-7 32,-10 49,-10 16,0 31,3 45,8 13,5 26,14 36,25 10,12 18,26 24,44 6,18 9,40 9,65 0,2 0,4 0,6 0,2 0,6 -1,12l-197 0c0,18 3,33 8,46 6,13 13,23 23,31 10,8 21,13 33,17 13,3 27,5 42,5zm459 -364c-6,-1 -13,-2 -20,-3 -7,0 -14,-1 -19,-1 -10,0 -19,2 -28,4 -8,3 -15,7 -21,13 -5,5 -10,13 -13,22 -2,9 -4,21 -4,34l0 43 85 0 0 40 -85 0 0 245 -47 0 0 -245 -50 0 0 -40 50 0 0 -43c0,-21 3,-38 9,-52 5,-14 13,-26 22,-35 10,-9 21,-15 34,-20 13,-4 27,-6 42,-6 10,0 19,0 27,1 8,1 14,2 18,4l0 39zm235 255c0,-17 -2,-33 -6,-47 -5,-13 -11,-25 -18,-35 -8,-9 -17,-16 -28,-21 -11,-5 -22,-8 -35,-8 -12,0 -24,3 -35,8 -10,5 -19,12 -27,21 -8,10 -14,22 -18,35 -5,14 -7,30 -7,47 0,18 2,33 7,47 4,14 10,25 18,35 8,9 17,16 28,21 10,5 22,7 35,7 12,0 24,-2 34,-7 11,-5 20,-12 28,-21 7,-10 13,-21 18,-35 4,-14 6,-29 6,-47zm49 0c0,23 -4,43 -10,61 -6,19 -15,35 -27,48 -12,13 -26,23 -43,30 -16,7 -35,11 -55,11 -22,0 -41,-4 -57,-11 -17,-7 -31,-17 -43,-30 -12,-13 -21,-29 -27,-48 -6,-18 -9,-38 -9,-61 0,-22 3,-43 9,-61 7,-19 16,-34 28,-48 11,-13 26,-23 42,-30 17,-7 36,-11 56,-11 21,0 40,4 57,11 17,7 31,17 43,30 11,14 20,29 26,48 7,18 10,39 10,61zm229 -104l-3 0c-11,0 -22,1 -33,2 -10,3 -20,6 -30,10 -9,4 -17,9 -25,15 -7,6 -13,13 -18,21l0 198 -47 0 0 -285 36 0 9 46 1 0c5,-8 10,-15 17,-21 7,-6 14,-12 23,-17 8,-4 17,-8 27,-11 10,-3 21,-4 32,-4 2,0 4,0 6,0 2,0 4,0 5,1l0 45zm176 246l0 -434 46 0 0 434 -46 0zm142 0l0 -285 47 0 0 285 -47 0zm-1 -351l0 -51 47 0 0 51 -47 0zm306 -46c-6,-1 -13,-2 -20,-3 -7,0 -13,-1 -18,-1 -11,0 -20,2 -28,4 -9,3 -16,7 -21,13 -6,5 -10,13 -13,22 -3,9 -5,21 -5,34l0 43 85 0 0 40 -85 0 0 245 -46 0 0 -245 -50 0 0 -40 50 0 0 -43c0,-21 2,-38 8,-52 5,-14 13,-26 23,-35 9,-9 21,-15 34,-20 13,-4 27,-6 42,-6 9,0 18,0 26,1 8,1 14,2 18,4l0 39zm141 145c-11,0 -21,2 -31,6 -9,5 -17,10 -24,17 -7,8 -12,16 -16,26 -5,9 -7,20 -8,31l146 0c0,-11 -2,-22 -5,-31 -3,-10 -7,-19 -13,-26 -5,-7 -12,-13 -21,-17 -8,-4 -17,-6 -28,-6zm24 219c15,0 29,-1 42,-3 13,-3 25,-6 38,-11l0 39c-10,5 -23,9 -38,11 -15,3 -31,5 -48,5 -21,0 -40,-3 -58,-8 -18,-5 -33,-14 -46,-25 -13,-12 -23,-27 -31,-46 -7,-18 -11,-41 -11,-67 0,-26 4,-49 11,-68 7,-19 17,-35 29,-48 12,-12 25,-22 41,-28 16,-7 32,-10 49,-10 16,0 31,3 45,8 13,5 26,14 36,25 10,12 18,26 24,44 6,18 9,40 9,65 0,2 0,4 0,6 0,2 0,6 -1,12l-197 0c0,18 3,33 8,46 6,13 13,23 23,31 10,8 21,13 33,17 13,3 27,5 42,5z"/>
  </g>
 </g>
</svg>
