<?xml version="1.0" encoding="UTF-8"?>
<!DOCTYPE svg PUBLIC "-//W3C//DTD SVG 1.1//EN" "http://www.w3.org/Graphics/SVG/1.1/DTD/svg11.dtd">
<!-- Creator: CorelDRAW Home & Student X7 -->
<svg xmlns="http://www.w3.org/2000/svg" xml:space="preserve" width="1535px" height="908px" version="1.1" style="shape-rendering:geometricPrecision; text-rendering:geometricPrecision; image-rendering:optimizeQuality; fill-rule:evenodd; clip-rule:evenodd"
viewBox="0 0 590 349"
 xmlns:xlink="http://www.w3.org/1999/xlink">
 <defs>
  <style type="text/css">
   <![CDATA[
    .fil0 {fill:#F2E0D9}
    .fil1 {fill:#C39989;fill-rule:nonzero}
   ]]>
  </style>
 </defs>
 <g id="Слой_x0020_1">
  <metadata id="CorelCorpID_0Corel-Layer"/>
  <g id="_588239552">
   <path class="fil0" d="M201 108c-4,-6 -9,-9 -14,-10 -23,0 -48,33 -48,61 0,7 2,14 7,19 -30,-5 -62,-7 -97,-6l0 -17c30,-27 74,-54 131,-82 -39,-6 -81,-8 -128,-4 0,-19 1,-36 2,-51 0,-19 -29,-25 -29,-8 0,20 0,41 0,61 -7,1 -15,2 -22,3 -4,2 -4,4 0,5 8,-1 15,-2 23,-2 0,27 1,55 3,83 -7,6 -12,12 -18,18 -3,6 -1,8 7,7 4,0 8,-1 12,-2 2,55 5,110 7,165 0,4 6,-3 6,-12 0,-6 3,-76 5,-155 65,-5 135,5 209,32 3,1 5,2 8,1 2,0 4,-1 5,-1 -28,-16 -64,-24 -98,-31 8,-4 18,-12 25,-23 0,-1 -1,-1 -2,-2 -8,7 -19,20 -32,20 -6,0 -7,-8 -7,-14 0,-2 0,-3 0,-5 29,-11 44,-22 45,-50zm292 105c1,1 4,2 6,1 2,0 4,-1 5,-1 -31,-17 -70,-26 -109,-33 20,-10 34,-31 34,-54 0,-11 -3,-16 -9,-16 -1,0 -2,0 -3,0 -4,-6 -7,-10 -11,-12 -5,0 -11,2 -18,7 -16,12 -27,34 -27,52 0,7 2,14 5,19 -31,-4 -64,-5 -100,-3 30,-33 79,-67 148,-100 -52,-8 -111,-8 -177,1 -4,2 -4,4 1,5 40,-6 81,-3 123,11 -48,27 -87,56 -116,88 -3,6 0,8 8,7 74,-12 154,-4 240,28zm-441 -137c24,1 50,5 75,14 -29,16 -55,34 -77,52 0,-22 1,-45 2,-66zm137 37c0,16 -14,30 -32,39 6,-21 20,-37 32,-39zm202 18c5,-8 13,-15 23,-18 2,2 2,6 2,12 0,26 -14,48 -35,52 -2,0 -4,-6 -4,-12 0,-9 6,-24 14,-34zm74 -35c-2,1 -10,12 -19,32 -8,18 -13,37 -13,46 1,5 3,10 8,13 3,-2 7,-7 12,-14 8,-12 16,-22 27,-32 7,-6 13,-9 14,-9 -8,18 -10,25 -10,30 0,10 4,18 17,18 4,0 11,-4 14,-7 0,-1 0,-3 -1,-3 -2,0 -5,2 -7,2 -3,0 -5,-1 -5,-7 0,-14 12,-37 18,-45 3,-3 5,-3 5,-4 -2,-4 -6,-9 -12,-9 -11,0 -27,17 -36,26 -4,4 -15,18 -23,26 2,-10 20,-34 25,-47 -3,-7 -8,-14 -14,-16zm125 12c-4,-6 -9,-9 -14,-10 -23,0 -49,33 -49,61 0,14 10,24 25,26 11,-2 24,-12 34,-26 0,-1 -1,-1 -2,-2 -8,7 -19,20 -32,20 -6,0 -7,-8 -7,-14 0,-2 0,-3 0,-5 29,-11 43,-22 45,-50zm-12 5c0,16 -14,30 -32,39 5,-21 20,-37 32,-39z"/>
   <path class="fil1" d="M156 248c-1,0 -2,0 -3,0 0,0 -1,0 -2,0 -1,0 -2,0 -3,0 -1,0 -1,1 -2,1 -1,1 -1,2 -2,3 0,1 0,2 0,4l0 4 9 0 0 5 -9 0 0 27 -5 0 0 -27 -6 0 0 -5 6 0 0 -4c0,-3 0,-5 1,-6 0,-2 1,-3 2,-4 1,-1 3,-2 4,-2 1,-1 3,-1 5,-1 1,0 2,0 3,0 0,0 1,0 2,1l0 4z"/>
   <path id="1" class="fil1" d="M171 293c-1,0 -3,0 -4,-1 -1,0 -2,-1 -3,-1 -1,-1 -2,-2 -3,-2 -1,-1 -1,-2 -2,-3 0,-1 0,-2 0,-3 0,-1 0,-2 0,-3l0 -20 5 0 0 20c0,2 0,3 0,4 1,2 2,3 3,3 1,1 3,1 5,1 1,0 3,0 4,-1 1,-1 2,-2 3,-3 0,-1 0,-3 0,-4l0 -20 6 0 0 20c0,1 -1,2 -1,3 0,1 0,2 0,2 -1,1 -1,2 -2,3 -1,1 -1,2 -2,3 -1,0 -3,1 -4,1 -1,1 -3,1 -5,1z"/>
   <path id="2" class="fil1" d="M211 265l0 0c-1,0 -2,0 -4,0 -1,0 -2,1 -3,1 -1,0 -2,1 -3,2 0,0 -1,1 -2,2l0 22 -5 0 0 -32 4 0 1 5 0 0c1,0 1,-1 2,-2 1,-1 2,-1 3,-2 1,0 2,-1 3,-1 1,0 2,0 3,0 0,0 1,0 1,0 0,0 0,0 0,0l0 5z"/>
   <path id="3" class="fil1" d="M222 265l0 0c1,-1 1,-2 2,-2 1,-1 1,-1 2,-2 1,0 2,-1 3,-1 1,0 2,0 4,0 1,0 2,0 4,0 1,1 2,1 3,2 1,1 2,2 2,4 1,1 1,3 1,5l0 21 -5 0 0 -20c0,-3 -1,-5 -2,-6 -1,-1 -2,-2 -4,-2 -2,0 -4,1 -6,1 -1,1 -3,3 -4,5l0 22 -5 0 0 -32 4 0 1 5z"/>
   <path id="4" class="fil1" d="M253 292l0 -32 5 0 0 32 -5 0zm0 -39l0 -6 5 0 0 6 -5 0z"/>
   <path id="5" class="fil1" d="M285 292c0,0 -1,0 -2,1 -1,0 -2,0 -3,0 -2,0 -3,0 -4,-1 -1,0 -2,-1 -3,-2 -1,0 -2,-1 -2,-2 0,-1 -1,-3 -1,-4l0 -19 -6 0 0 -5 6 0 0 -8 5 0 0 8 10 0 0 5 -10 0 0 18c0,1 1,2 1,2 0,1 0,1 1,2 0,0 1,1 2,1 0,0 1,0 2,0 1,0 2,0 2,0 1,0 2,0 2,0l0 4z"/>
   <path id="6" class="fil1" d="M305 293c-2,0 -3,0 -5,-1 -1,0 -2,-1 -3,-1 -1,-1 -2,-2 -3,-2 0,-1 -1,-2 -1,-3 0,-1 -1,-2 -1,-3 0,-1 0,-2 0,-3l0 -20 5 0 0 20c0,2 0,3 1,4 0,2 1,3 2,3 2,1 3,1 5,1 2,0 4,0 5,-1 1,-1 2,-2 2,-3 1,-1 1,-3 1,-4l0 -20 5 0 0 20c0,1 0,2 0,3 0,1 0,2 -1,2 0,1 -1,2 -1,3 -1,1 -2,2 -3,3 -1,0 -2,1 -4,1 -1,1 -2,1 -4,1z"/>
   <path id="7" class="fil1" d="M345 265l0 0c-2,0 -3,0 -4,0 -1,0 -2,1 -3,1 -1,0 -2,1 -3,2 -1,0 -2,1 -2,2l0 22 -5 0 0 -32 4 0 1 5 0 0c0,0 1,-1 2,-2 0,-1 1,-1 2,-2 1,0 2,-1 3,-1 1,0 2,0 4,0 0,0 0,0 0,0 1,0 1,0 1,0l0 5z"/>
   <path id="8" class="fil1" d="M363 264c-2,0 -3,0 -4,1 -1,0 -2,1 -2,2 -1,0 -2,1 -2,2 -1,2 -1,3 -1,4l16 0c0,-1 0,-3 0,-4 -1,-1 -1,-2 -2,-2 0,-1 -1,-2 -2,-2 -1,-1 -2,-1 -3,-1zm2 24c2,0 4,0 5,0 1,0 3,-1 4,-1l0 4c-1,1 -2,1 -4,1 -2,1 -3,1 -5,1 -3,0 -5,0 -7,-1 -2,-1 -3,-2 -5,-3 -1,-1 -2,-3 -3,-5 -1,-2 -1,-4 -1,-7 0,-3 0,-6 1,-8 1,-2 2,-4 3,-5 1,-2 3,-3 5,-3 1,-1 3,-1 5,-1 2,0 3,0 5,0 1,1 3,2 4,3 1,2 2,3 3,5 0,2 1,5 1,7 0,1 0,1 0,1 0,0 0,1 0,1l-22 0c0,2 0,4 1,5 0,2 1,3 2,4 1,1 2,1 4,2 1,0 3,0 4,0z"/>
   <path id="9" class="fil1" d="M416 248c0,0 -1,0 -2,0 -1,0 -1,0 -2,0 -1,0 -2,0 -3,0 -1,0 -2,1 -2,1 -1,1 -1,2 -2,3 0,1 0,2 0,4l0 4 9 0 0 5 -9 0 0 27 -5 0 0 -27 -6 0 0 -5 6 0 0 -4c0,-3 0,-5 0,-6 1,-2 2,-3 3,-4 1,-1 2,-2 4,-2 1,-1 3,-1 4,-1 1,0 2,0 3,0 1,0 2,0 2,1l0 4z"/>
   <path id="10" class="fil1" d="M442 276c0,-2 0,-3 0,-5 -1,-1 -1,-3 -2,-4 -1,-1 -2,-2 -3,-2 -2,-1 -3,-1 -4,-1 -2,0 -3,0 -4,1 -1,0 -2,1 -3,2 -1,1 -2,3 -2,4 -1,2 -1,3 -1,5 0,2 0,4 1,5 0,2 1,3 2,4 1,1 2,2 3,3 1,0 2,0 4,0 1,0 2,0 4,0 1,-1 2,-2 3,-3 1,-1 1,-2 2,-4 0,-1 0,-3 0,-5zm6 0c0,3 -1,5 -1,7 -1,2 -2,4 -3,5 -2,2 -3,3 -5,4 -2,0 -4,1 -6,1 -3,0 -5,-1 -7,-1 -1,-1 -3,-2 -4,-4 -2,-1 -3,-3 -3,-5 -1,-2 -1,-4 -1,-7 0,-2 0,-5 1,-7 1,-2 2,-3 3,-5 1,-1 3,-2 5,-3 1,-1 3,-1 6,-1 2,0 4,0 6,1 2,1 4,2 5,3 1,2 2,3 3,5 0,2 1,5 1,7z"/>
   <path id="11" class="fil1" d="M473 265l0 0c-1,0 -3,0 -4,0 -1,0 -2,1 -3,1 -1,0 -2,1 -3,2 -1,0 -1,1 -2,2l0 22 -5 0 0 -32 4 0 1 5 0 0c1,0 1,-1 2,-2 1,-1 1,-1 2,-2 1,0 2,-1 3,-1 2,0 3,0 4,0 0,0 0,0 1,0 0,0 0,0 0,0l0 5z"/>
   <polygon id="12" class="fil1" points="493,292 493,244 498,244 498,292 "/>
   <path id="13" class="fil1" d="M509 292l0 -32 5 0 0 32 -5 0zm-1 -39l0 -6 6 0 0 6 -6 0z"/>
   <path id="14" class="fil1" d="M542 248c0,0 -1,0 -2,0 -1,0 -1,0 -2,0 -1,0 -2,0 -3,0 -1,0 -2,1 -2,1 -1,1 -1,2 -2,3 0,1 0,2 0,4l0 4 9 0 0 5 -9 0 0 27 -5 0 0 -27 -6 0 0 -5 6 0 0 -4c0,-3 0,-5 0,-6 1,-2 2,-3 3,-4 1,-1 2,-2 4,-2 1,-1 3,-1 4,-1 1,0 2,0 3,0 1,0 2,0 2,1l0 4z"/>
   <path id="15" class="fil1" d="M558 264c-1,0 -2,0 -3,1 -1,0 -2,1 -3,2 -1,0 -1,1 -2,2 0,2 -1,3 -1,4l16 0c0,-1 0,-3 0,-4 0,-1 -1,-2 -2,-2 0,-1 -1,-2 -2,-2 -1,-1 -2,-1 -3,-1zm3 24c1,0 3,0 4,0 2,0 3,-1 5,-1l0 4c-2,1 -3,1 -5,1 -1,1 -3,1 -5,1 -2,0 -4,0 -6,-1 -2,-1 -4,-2 -6,-3 -1,-1 -2,-3 -3,-5 -1,-2 -1,-4 -1,-7 0,-3 0,-6 1,-8 1,-2 2,-4 3,-5 2,-2 3,-3 5,-3 1,-1 3,-1 5,-1 2,0 4,0 5,0 2,1 3,2 4,3 1,2 2,3 3,5 0,2 1,5 1,7 0,1 0,1 0,1 0,0 0,1 0,1l-22 0c0,2 0,4 1,5 0,2 1,3 2,4 1,1 3,1 4,2 1,0 3,0 5,0z"/>
  </g>
 </g>
</svg>
